<svg xmlns="http://www.w3.org/2000/svg" viewBox="0 0 400 300"><defs><style>.cls-1{fill:#fff;}.cls-2{fill:gray;}</style></defs><g id="Слой_2" data-name="Слой 2"><g id="Слой_1-2" data-name="Слой 1"><rect class="cls-1" width="400" height="300"/><path class="cls-2" d="M119.59,55.26h94.26a20,20,0,0,1,19.92,19.93v94.25a20,20,0,0,1-19.92,19.92H119.59a20,20,0,0,1-19.91-19.92V75.19A20,20,0,0,1,119.59,55.26Zm27,93.29a4,4,0,0,0,4,4h32.18a4,4,0,0,0,4-4V96.06a3.9,3.9,0,0,0-4-3.84H150.63a3.9,3.9,0,0,0-4,3.84Z"/><path class="cls-2" d="M300.32,55.26v49.41c0,10.92-3.44,29.51-14.36,29.51H256.84V55.26Zm0,90.61v43.49H256.84V145.87Z"/><path class="cls-2" d="M126,227.94v12.17h-2.81v-8.5l-6.19,6.2c-1,1-2.35,2.3-3.45,2.3h-.84V230c-.87-.38-1.08-1.15-1.42-2.09h4.22v8.5l6.2-6.19c.79-.8,2.35-2.31,3.21-2.31Z"/><path class="cls-2" d="M136.23,227.94c1.2,0,2,.63,2,1.49l-.39,2.86a1.07,1.07,0,0,1-1,.91v.17h1.34a1.44,1.44,0,0,1,1.27,1.58l-.48,3.46a2.16,2.16,0,0,1-2.37,1.7H128c.52-1.42,1-1.85,2.13-1.85h5.55a.72.72,0,0,0,.69-.5l.36-2.42a.4.4,0,0,0-.36-.46h-5.13c-.75,0-1-1.08-1.18-1.73h4.56a.73.73,0,0,0,.6-.62l.24-2c.05-.32.05-.7-.55-.7h-5.38c-.93,0-1.27-1.18-1.53-1.85Z"/><path class="cls-2" d="M144.73,227.94h7.7a2.58,2.58,0,0,1,2.64,2.52v7.13a2.59,2.59,0,0,1-2.64,2.52h-7.7a2.61,2.61,0,0,1-2.64-2.52v-7.13A2.59,2.59,0,0,1,144.73,227.94Zm.14,9.1a1.23,1.23,0,0,0,1.23,1.22h5.06a1.2,1.2,0,0,0,1.18-1.22v-6a1.23,1.23,0,0,0-1.2-1.22h-5.07a1.21,1.21,0,0,0-1.2,1.22Z"/><path class="cls-2" d="M171.18,222.54c-.1,1,0,2.55-1.2,2.74l-7.76,1.32c-1.39.24-1.6,1.13-1.6,2.37v2c.62-1.27,1.72-1.78,3.6-1.78h4.27a2.61,2.61,0,0,1,2.69,2.55v5.81a2.62,2.62,0,0,1-2.69,2.54h-7.61a2.62,2.62,0,0,1-2.69-2.54v-8.93c0-2.74,1.06-4.06,3.55-4.49ZM161,237a1.25,1.25,0,0,0,1.25,1.27h4.89a1.25,1.25,0,0,0,1.23-1.27V232.6a1.27,1.27,0,0,0-1.25-1.27h-4.9A1.24,1.24,0,0,0,161,232.6Z"/><path class="cls-2" d="M186.54,238c-.15,1.44-1.59,2.16-3,2.16h-5.06c-.6,0-1-1.06-1.11-1.58h-.16v5.78l-2.81.43V230c-.89,0-1.3-1.15-1.49-2.09H185a2.06,2.06,0,0,1,2.33,2.21ZM177.18,230v8h5.66a1,1,0,0,0,1-.79l.63-6.38a.86.86,0,0,0-.89-.82Z"/><path class="cls-2" d="M190.16,227.94h9.74a2.77,2.77,0,0,1,2.81,2.67v9.5h-2.78v-1.32h-.19c-.27.5-.82,1.32-1.66,1.32h-5.54c-1.2,0-2.79-.5-2.79-2.06V235c0-1.44,1.44-2.14,2.95-2.14h7.23v-1.36a1.35,1.35,0,0,0-1.54-1.42H191.6a1.3,1.3,0,0,1-1-.86Zm9.77,10.49v-3.94h-6.41c-.5,0-1,.34-1,.77v2.4c0,.46.43.77,1,.77Z"/><path class="cls-2" d="M213.66,230a3.37,3.37,0,0,1-1.18-2.09h3.84v5.55h.43l2.52-4.28a2.51,2.51,0,0,1,2.55-1.27h2.9c-.24.72-.67,2.09-1.46,2.09h-1.37a1.09,1.09,0,0,0-1,.58l-1.59,2.47h1.25A2.69,2.69,0,0,1,222.9,235l1.73,5.09h-3L220.18,236a1.23,1.23,0,0,0-1-.81h-.79a1.79,1.79,0,0,1-1.56-1.06h-.48v6h-2.81v-6H213a1.7,1.7,0,0,1-1.56,1.06h-.79a1.23,1.23,0,0,0-1,.81l-1.47,4.13h-3l1.84-5.35a2.6,2.6,0,0,1,2.19-1.68h1.25l-1.59-2.47a1.17,1.17,0,0,0-1-.58h-1.37c-.79,0-1.22-1.37-1.46-2.09H208a2.5,2.5,0,0,1,2.54,1.27l2.52,4.28h.43Z"/><path class="cls-2" d="M226.88,237V231c0-2,1.27-3,3.19-3h6.58c2.16,0,3.19,1.23,3.19,3v4.2H231c-.7,0-1-1-1.15-1.32h-.15V237a1.28,1.28,0,0,0,1.3,1.25h8.59c-.26.67-.53,1.85-1.41,1.85h-8.45A2.82,2.82,0,0,1,226.88,237Zm10.18-3.63V231a1.28,1.28,0,0,0-1.28-1.25H231a1.3,1.3,0,0,0-1.3,1.25v2.37Z"/><path class="cls-2" d="M245.77,227.94v5h7.37v-5h2.8v12.17h-2.8v-5.18h-6c-.5,0-1.08-1-1.15-1.49h-.26v6.67H243V230c-.87-.38-1.11-1.15-1.42-2.09Z"/><path class="cls-2" d="M272.6,227.94v12.17h-2.81v-8.5l-6.19,6.2c-1,1-2.35,2.3-3.46,2.3h-.84V230c-.86-.38-1.08-1.15-1.41-2.09h4.22v8.5l6.19-6.19c.79-.8,2.36-2.31,3.22-2.31Z"/><path class="cls-2" d="M275.72,237V231c0-2,1.27-3,3.19-3h6.58c2.16,0,3.19,1.23,3.19,3v4.2H279.8c-.7,0-1-1-1.15-1.32h-.15V237a1.28,1.28,0,0,0,1.3,1.25h8.59c-.26.67-.53,1.85-1.41,1.85h-8.45A2.82,2.82,0,0,1,275.72,237Zm10.18-3.63V231a1.28,1.28,0,0,0-1.28-1.25H279.8a1.3,1.3,0,0,0-1.3,1.25v2.37Z"/><path class="cls-2" d="M122,203.22h7.7a2.58,2.58,0,0,1,2.64,2.52v7.13a2.59,2.59,0,0,1-2.64,2.52H122a2.61,2.61,0,0,1-2.64-2.52v-7.13A2.59,2.59,0,0,1,122,203.22Zm.14,9.1a1.23,1.23,0,0,0,1.23,1.22h5.06a1.2,1.2,0,0,0,1.18-1.22v-6a1.22,1.22,0,0,0-1.2-1.22h-5.07a1.21,1.21,0,0,0-1.2,1.22Z"/><path class="cls-2" d="M147.25,203.22v2.09h-5v10.08h-2.81V205.31h-4c-.57,0-.93-1.37-1.2-2.09Z"/><path class="cls-2" d="M158.34,208.91v-3.6h-4.83a1.31,1.31,0,0,0-1.32,1.29V212a1.33,1.33,0,0,0,1.32,1.32h7.42c-.26.72-.53,2.09-1.42,2.09h-7a2.82,2.82,0,0,1-3.14-3v-6.46c0-1.82,1.77-2.66,3.53-2.66h7.82v4.22c0,.48-.55.87-1.06,1Z"/><path class="cls-2" d="M167.31,210.59a1.82,1.82,0,0,0,1.78,1.41h3.74l.94-6.89a2.48,2.48,0,0,1,2.16-1.89h.93l-1.8,13.63c-.31,2.38-2.66,3.17-4.53,3.17H165c0-.41.55-2.09,1.61-2.09h3.6a1.87,1.87,0,0,0,1.92-1.56l.62-4h-.24c-.12.43-.62,1.68-1.34,1.68H169c-2.19,0-4.18-1.06-4.47-3.17l-.74-5.54c-.75,0-1.2-1.47-1.32-2.09h3.86Z"/><path class="cls-2" d="M191.29,203.22v2.09h-5v10.08h-2.81V205.31h-4c-.57,0-.93-1.37-1.2-2.09Z"/><path class="cls-2" d="M202.38,208.91v-3.6h-4.83a1.31,1.31,0,0,0-1.32,1.29V212a1.33,1.33,0,0,0,1.32,1.32H205c-.27.72-.53,2.09-1.42,2.09h-7a2.82,2.82,0,0,1-3.14-3v-6.46c0-1.82,1.77-2.66,3.53-2.66h7.82v4.22c0,.48-.55.87-1.06,1Z"/><path class="cls-2" d="M219.63,203.22v2.09h-5v10.08h-2.81V205.31h-4c-.58,0-.94-1.37-1.2-2.09Z"/><path class="cls-2" d="M232,203.22c1.1,0,1.8.53,1.7,1.15l-.5,3.14c0,.41-.6.87-1.23,1.13h1.75a1.44,1.44,0,0,1,1.28,1.59l-.56,3.48c-.19,1.22-1.39,1.68-2.52,1.68H222V205.31c-.86-.39-1.1-1.15-1.42-2.09Zm-1.13,2.54c0-.26.07-.69-.55-.69h-5.5v3.38h5c.6,0,.72-.33.74-.55Zm-4.83,4.3c-.69,0-.93-.7-1.22-1.08v4.56h6.34c.48,0,.62-.19.69-.53l.36-2.49a.44.44,0,0,0-.36-.46Z"/><path class="cls-2" d="M240.82,210.59A1.83,1.83,0,0,0,242.6,212h3.74l.94-6.89a2.49,2.49,0,0,1,2.16-1.89h.94l-1.8,13.63c-.32,2.38-2.67,3.17-4.54,3.17h-5.5c0-.41.55-2.09,1.61-2.09h3.6a1.87,1.87,0,0,0,1.92-1.56l.63-4h-.24c-.12.43-.63,1.68-1.35,1.68h-2.18c-2.19,0-4.18-1.06-4.47-3.17l-.74-5.54c-.74,0-1.2-1.47-1.32-2.09h3.86Z"/><path class="cls-2" d="M253,212.32v-6.08c0-2,1.28-3,3.2-3h6.57c2.16,0,3.2,1.22,3.2,3v4.2h-8.89c-.69,0-1-1-1.15-1.32h-.14v3.19a1.28,1.28,0,0,0,1.29,1.25h8.6c-.27.67-.53,1.85-1.42,1.85h-8.45A2.82,2.82,0,0,1,253,212.32Zm10.18-3.63v-2.37a1.27,1.27,0,0,0-1.27-1.25h-4.83a1.29,1.29,0,0,0-1.29,1.25v2.37Z"/><path class="cls-2" d="M280.64,203.22v2.09h-5v10.08h-2.81V205.31h-4c-.57,0-.93-1.37-1.2-2.09Z"/></g></g></svg>