<?xml version="1.0" encoding="utf-8"?>
<!-- Generator: Adobe Illustrator 24.3.0, SVG Export Plug-In . SVG Version: 6.00 Build 0)  -->
<svg version="1.1" id="Слой_1" xmlns="http://www.w3.org/2000/svg" xmlns:xlink="http://www.w3.org/1999/xlink" x="0px" y="0px"
	 viewBox="0 0 290 405" style="enable-background:new 0 0 290 405;" xml:space="preserve">
<style type="text/css">
	.st0{fill:#FFFFFF;filter:url(#Adobe_OpacityMaskFilter);}
	.st1{mask:url(#mask0_54_4080_2_);}
	.st2{fill:url(#SVGID_3_);}
	.st3{fill-rule:evenodd;clip-rule:evenodd;fill:#492483;}
	.st4{fill-rule:evenodd;clip-rule:evenodd;fill:#EEEEEE;}
	.st5{fill:#FFFFFF;}
</style>
<g>
	<defs>
		<rect id="SVGID_1_" x="22" y="81" width="246" height="286"/>
	</defs>
	<clipPath id="SVGID_2_">
		<use xlink:href="#SVGID_1_"  style="overflow:visible;"/>
	</clipPath>
</g>
<g>
	<defs>
		<filter id="Adobe_OpacityMaskFilter" filterUnits="userSpaceOnUse" x="44.9" y="81" width="200.1" height="200.3">
			<feColorMatrix  type="matrix" values="1 0 0 0 0  0 1 0 0 0  0 0 1 0 0  0 0 0 1 0"/>
		</filter>
	</defs>
	<mask maskUnits="userSpaceOnUse" x="44.9" y="81" width="200.1" height="200.3" id="mask0_54_4080_2_">
		<path class="st0" d="M145,281.4c55.3,0,100.1-44.8,100.1-100.1c0-55.3-44.8-100.1-100.1-100.1c-55.3,0-100.1,44.8-100.1,100.1
			C44.9,236.5,89.7,281.4,145,281.4z"/>
	</mask>
	<g class="st1">
		
			<linearGradient id="SVGID_3_" gradientUnits="userSpaceOnUse" x1="72.0053" y1="154.5247" x2="210.5964" y2="287.8747" gradientTransform="matrix(1 0 0 -1 0 405.8898)">
			<stop  offset="0" style="stop-color:#3C2583"/>
			<stop  offset="1" style="stop-color:#632584"/>
		</linearGradient>
		<path class="st2" d="M245.1,81H44.9v200.3h200.1V81z"/>
	</g>
	<path class="st3" d="M74.6,267.5l135.2-10.9l5.7,40.6H74.6V267.5z"/>
	<path class="st4" d="M106.2,275.7c0-0.2,0.1-0.4,0.4-0.4h3.1c0.2,0,0.4,0.1,0.4,0.4v5.1c0,0.2-0.1,0.4-0.4,0.4h-3.1
		c-0.2,0-0.4-0.2-0.4-0.4V275.7z M101.6,273.6v9.2c0,1.1,0.9,2,1.9,2h9.1c1,0,1.9-0.9,1.9-2v-9.2c0-1.1-0.9-2-1.9-2h-9.1
		C102.5,271.7,101.6,272.6,101.6,273.6z"/>
	<path class="st4" d="M129,284.7h4.6v-13h-2c-1.4,0-2.9,0.6-3.7,1.6l-2.6,3.4h-0.1l-4-5h-5.6l1.2,3.6v9.4h4.5v-7.4h0.1l3.6,4.6h0.1
		l3.6-4.6h0.1v7.4H129z"/>
	<path class="st4" d="M136.3,275.3v9.4h11.4l-0.9-2.5c-0.2-0.7-0.7-0.9-1.1-0.9h-5v-2h0.2h0.4h0.5h2.6c0.4,0,0.9-0.1,1-0.6l0.7-2.2
		h-5.3v-1.7h5.1c0.4,0,0.7-0.2,1-0.6l1-2.7h-12.9L136.3,275.3z"/>
	<path class="st4" d="M154.3,281.4v-6.3h3.1c0.5,0,0.9,0.4,0.9,0.7v4.8c0,0.5-0.4,0.9-0.9,0.9h-3.1V281.4z M148.5,271.7l1.2,3.6v9.4
		h10.2c1.9,0,2.7-1.6,2.7-2.6v-7.7c0-1-1-2.7-2.7-2.7H148.5z"/>
	<path class="st4" d="M164.1,271.7l1.2,3.6v9.4h4.6v-13H164.1z"/>
	<path class="st4" d="M177.9,275.1h1.2l1,5h-3.2L177.9,275.1z M175.9,284.7l0.4-1.9h2.5c0.5,0,1.5,0,1.5,0h0.2h0.1l0.4,1.9h4.6
		l-2.6-13h-10.8l1.2,3.6l-1.9,9.4H175.9z"/>
	<path class="st4" d="M185.8,267l1.2,3.4v9.1c0,0,1.7,0,2.9,0c1,0,1.4,0,1.4,0V267H185.8z M187,280.5v4.2h4.2v-4.2H187z"/>
	<path class="st4" d="M101.7,287.3c0.1,0.4,0.1,0.6,0.5,0.7v3.4h1v-2.2h0.1c0,0.1,0.2,0.5,0.4,0.5h2v1.7h1v-4.1h-1v1.7h-2.5v-1.7
		H101.7z"/>
	<path class="st4" d="M108.9,290.9c-0.1,0-0.4-0.1-0.4-0.2v-0.9c0-0.1,0.1-0.2,0.4-0.2h2.1v1.4H108.9z M107.9,287.7
		c0,0.1,0.2,0.2,0.4,0.2h2.2c0.4,0,0.5,0.2,0.5,0.5v0.5h-2.5c-0.5,0-1,0.2-1,0.7v1c0,0.5,0.5,0.7,1,0.7h1.9c0.2,0,0.5-0.2,0.6-0.5
		h0.1v0.5h1v-3.2c0-0.5-0.4-0.9-1-0.9h-3.2V287.7z"/>
	<path class="st4" d="M116.6,289.1c0.1,0,0.4-0.1,0.4-0.4v-1.4h-2.6c-0.6,0-1.2,0.2-1.2,0.9v2.2c0,0.6,0.4,1,1.1,1h2.4
		c0.2,0,0.4-0.5,0.5-0.7h-2.5c-0.2,0-0.5-0.2-0.5-0.5v-1.9c0-0.2,0.2-0.5,0.5-0.5h1.6v1.2H116.6z"/>
	<path class="st4" d="M117.5,287.3c0.1,0.2,0.2,0.7,0.4,0.7h1.4v3.4h1v-3.4h1.7v-0.7H117.5z"/>
	<path class="st4" d="M123.7,288.3c0-0.2,0.1-0.4,0.4-0.4h1.7c0.2,0,0.4,0.1,0.4,0.4v2c0,0.2-0.1,0.4-0.4,0.4H124
		c-0.2,0-0.4-0.1-0.4-0.4V288.3z M122.7,288.2v2.4c0,0.5,0.4,0.9,0.9,0.9h2.6c0.5,0,0.9-0.4,0.9-0.9v-2.4c0-0.5-0.4-0.9-0.9-0.9
		h-2.6C123.2,287.3,122.7,287.7,122.7,288.2z"/>
	<path class="st4" d="M128.9,288.2c0-0.1,0-0.2,0.1-0.2h2.1v1.6h-2c-0.1,0-0.2,0-0.2-0.1V288.2z M132.2,287.3h-3.8
		c-0.2,0-0.4,0.2-0.4,0.5l0.2,1.6c0,0.2,0.2,0.5,0.5,0.5h0.6c-0.1,0-0.2,0.1-0.4,0.2l-1.1,1.2h0.7c0.2,0,0.5-0.1,0.5-0.2l1.1-1.2
		h0.5c0.2,0,0.4-0.2,0.4-0.5v1.9h1v-4H132.2z"/>
	<path class="st4" d="M139.5,292.9c0.2,0,0.9-0.1,0.9-0.5v-1.6h-0.6v-3.4h-1v3.4h-1.7v-3.4h-1v3.4h-1.9v-3.4h-1.4
		c0.1,0.2,0.2,0.7,0.5,0.7v3.3h6.2V292.9z"/>
	<path class="st4" d="M145.2,287.3c-0.2,0-0.9,0.5-1.1,0.7l-2.1,2.1v-2.9h-1.4c0.1,0.4,0.1,0.6,0.5,0.7v3.4h0.2
		c0.4,0,0.9-0.5,1.1-0.7l2.1-2.1v2.9h1v-4.1H145.2z"/>
	<path class="st4" d="M147.6,289.2v-0.7c0-0.2,0.2-0.4,0.5-0.4h1.6c0.2,0,0.4,0.2,0.4,0.4v0.7H147.6z M147.6,291.4h2.9
		c0.2,0,0.4-0.4,0.5-0.6h-2.9c-0.2,0-0.5-0.1-0.5-0.4v-1.1c0,0.1,0.1,0.5,0.4,0.5h3v-1.4c0-0.6-0.4-1-1.1-1h-2.2
		c-0.6,0-1.1,0.4-1.1,1v2.1C146.6,290.9,147,291.4,147.6,291.4z"/>
	<path class="st5" d="M93.8,278.9l-2.1,3.5v2.4h-0.7v-2.4l-2.1-3.5h0.7l1.7,2.9l1.7-2.9H93.8z M86.5,284c0.2,0,0.5-0.1,0.7-0.2
		c0.2-0.1,0.2-0.4,0.2-0.7c0-0.2-0.1-0.5-0.2-0.6c-0.2-0.1-0.5-0.2-0.7-0.2h-1.6v1.9H86.5z M87.3,280.5c0-0.1,0-0.4-0.1-0.5
		c-0.1-0.1-0.2-0.2-0.4-0.4c-0.1-0.1-0.2-0.1-0.5-0.1h-1.6v1.7h1.7c0.2,0,0.5-0.1,0.6-0.2C87.3,281,87.3,280.8,87.3,280.5z
		 M87.5,281.8c0.2,0.1,0.5,0.2,0.6,0.5c0.1,0.2,0.2,0.5,0.2,0.9c0,0.5-0.1,0.9-0.5,1.1c-0.4,0.2-0.7,0.5-1.2,0.5h-2.4v-5.8h2.2
		c0.5,0,0.9,0.1,1.1,0.4c0.2,0.2,0.5,0.6,0.5,1.1c0,0.2-0.1,0.5-0.2,0.7C87.8,281.4,87.6,281.6,87.5,281.8z"/>
	<g>
		<path class="st5" d="M180.9,206.8c-3.1,3.2-7.4,5-11.9,5.1c-4.1,0.4-8.1-1.1-10.9-4c-3.4-3.7-3.4-9.1,0.2-13.4
			c3.3-3.9,8.2-6.2,13.4-6.1h1.7c-0.1-12.7-0.1-25.3-0.2-38.1l-5.1,1.8c-12.5,4.5-24.9,8.9-37.4,13.4c-0.8,0.2-1.4,0.9-1.2,1.8
			c0.1,16.6,0.2,33.2,0.3,49.8c0,4.8-2.6,8.1-6.5,10.4c-2.1,1.1-4.2,1.9-6.4,2.6l-0.6,0.2h-4.5c-1.3-0.3-2.6-0.7-3.8-1.1
			c-7.1-3-8.9-10.4-4-16.2c3.4-4,8.4-6.3,13.7-6.1h1.3h0.3v-1.5c-0.1-16.3,0-32.5-0.3-48.8c-0.1-6,3.7-11.3,9.4-13.3
			c14.5-4.8,29.1-9.9,43.6-14.8c6.5-2.2,12.1,1.8,12.2,8.7c0.1,19.6,0.1,39.3,0.3,58.9C184.4,200.3,183.8,203.9,180.9,206.8z"/>
		<path class="st5" d="M207,245.8h-94.8c-20.4,0-36.9-16.5-36.9-36.9V151c0-20.4,16.5-36.9,36.9-36.9H207V245.8z M112.2,119.7
			c-17.3,0-31.3,14-31.3,31.3v57.8c0,17.3,14,31.3,31.3,31.3h89.2V119.7H112.2z"/>
	</g>
	<g>
		<path d="M93.4,324.7h-0.9l-1-5.7l-2.5,5.6h-0.2l-2.5-5.5l-1,5.7h-0.9l1.2-7.3h0.9l2.4,5.4l2.4-5.4h0.9L93.4,324.7z"/>
		<path d="M99,317.3h1l-2.3,5.1c-0.4,0.9-0.8,1.5-1.2,1.8c-0.4,0.3-0.9,0.5-1.6,0.5h-0.3v-0.9h0.4c0.4,0,0.7-0.1,0.9-0.2
			c0.2-0.2,0.4-0.5,0.7-1l-2.8-5.3H95l2.2,4.2L99,317.3z"/>
		<path d="M104.4,320.8c0.3,0.2,0.6,0.4,0.8,0.7c0.2,0.3,0.3,0.7,0.3,1.1c0,0.6-0.2,1.2-0.7,1.6s-1.1,0.6-1.8,0.6
			c-0.7,0-1.3-0.2-1.7-0.6c-0.5-0.4-0.7-0.9-0.7-1.6h0.9c0,0.4,0.2,0.7,0.5,1c0.3,0.2,0.7,0.4,1.1,0.4c0.3,0,0.6-0.1,0.8-0.2
			s0.4-0.3,0.6-0.5c0.1-0.2,0.2-0.4,0.2-0.7c0-0.4-0.1-0.7-0.4-1c-0.3-0.3-0.6-0.4-1-0.4h-0.9v-0.8h0.9c0.4,0,0.7-0.1,0.9-0.3
			c0.2-0.2,0.4-0.5,0.4-0.8c0-0.4-0.1-0.6-0.4-0.9c-0.3-0.2-0.6-0.3-1.1-0.3c-0.4,0-0.7,0.1-1,0.3c-0.3,0.2-0.4,0.5-0.5,0.8h-0.9
			c0-0.6,0.3-1.1,0.7-1.4c0.4-0.4,1-0.6,1.6-0.6c0.7,0,1.3,0.2,1.7,0.6c0.4,0.4,0.7,0.9,0.7,1.4c0,0.2,0,0.4-0.1,0.6
			c-0.1,0.2-0.2,0.4-0.3,0.6C104.7,320.6,104.6,320.7,104.4,320.8z"/>
		<path d="M109.7,320c0.5,0,0.9,0.1,1.3,0.3c0.4,0.2,0.7,0.5,0.9,0.8s0.3,0.8,0.3,1.2c0,0.7-0.2,1.2-0.7,1.7
			c-0.5,0.4-1.1,0.7-1.8,0.7H107v-7.3h0.9v2.6H109.7z M109.6,323.8c0.5,0,0.9-0.1,1.1-0.4c0.3-0.3,0.4-0.6,0.4-1.1
			c0-0.4-0.1-0.8-0.4-1.1c-0.3-0.3-0.7-0.4-1.1-0.4h-1.7v3H109.6z M113.3,317.3h0.9v7.3h-0.9V317.3z"/>
		<path d="M120.7,324.7l-2.6-3.4h-1v3.4h-0.9v-7.3h0.9v3.1h1l2.4-3.1h1.2l-2.7,3.5l2.9,3.8H120.7z"/>
		<path d="M128,324.7l-0.7-1.8h-3.5l-0.7,1.8h-1l3-7.3h0.9l3.1,7.3H128z M125.5,318.6l-1.4,3.5h2.8L125.5,318.6z"/>
		<path d="M131.4,317.3h4.5v7.3H135v-6.5h-2.8l-0.3,4.2c-0.1,1.6-0.9,2.3-2.2,2.3h-0.3v-0.9h0.3c0.8,0,1.2-0.5,1.3-1.4L131.4,317.3z
			"/>
		<path d="M140.6,320c0.5,0,0.9,0.1,1.3,0.3c0.4,0.2,0.7,0.5,0.9,0.8s0.3,0.8,0.3,1.2c0,0.7-0.2,1.2-0.7,1.7
			c-0.5,0.4-1.1,0.7-1.8,0.7h-2.7v-7.3h0.9v2.6H140.6z M140.5,323.8c0.5,0,0.9-0.1,1.1-0.4c0.3-0.3,0.4-0.6,0.4-1.1
			c0-0.4-0.1-0.8-0.4-1.1c-0.3-0.3-0.7-0.4-1.1-0.4h-1.7v3H140.5z"/>
		<path d="M149.2,317.3h0.9v7.3h-0.9v-3.3h-3.8v3.3h-0.9v-7.3h0.9v3.1h3.8V317.3z"/>
		<path d="M154.8,320c0.5,0,0.9,0.1,1.3,0.3s0.7,0.5,0.9,0.8s0.3,0.8,0.3,1.2c0,0.7-0.2,1.2-0.7,1.7c-0.5,0.4-1.1,0.7-1.8,0.7h-2.7
			v-7.3h0.9v2.6H154.8z M154.7,323.8c0.5,0,0.9-0.1,1.2-0.4c0.3-0.3,0.4-0.6,0.4-1.1c0-0.4-0.1-0.8-0.4-1.1
			c-0.3-0.3-0.7-0.4-1.2-0.4H153v3H154.7z M158.3,317.3h0.9v7.3h-0.9V317.3z"/>
		<path d="M166.3,317.3h0.7v7.3h-0.9v-5.6l-4.2,5.6h-0.6v-7.3h0.9v5.6L166.3,317.3z M162.6,316.2v-0.7h3v0.7H162.6z"/>
		<path d="M173,317.3h4.5v7.3h-0.9v-6.5h-2.8l-0.3,4.2c-0.1,1.6-0.9,2.3-2.2,2.3h-0.3v-0.9h0.3c0.8,0,1.2-0.5,1.3-1.4L173,317.3z"/>
		<path d="M180.4,323.8h3.4v0.9h-4.3v-7.3h4.2v0.9h-3.2v2.3h3v0.9h-3V323.8z"/>
		<path d="M190.4,317.3h0.7v7.3h-0.9v-5.6l-4.2,5.6h-0.6v-7.3h0.9v5.6L190.4,317.3z M186.7,316.2v-0.7h3v0.7H186.7z"/>
		<path d="M195.8,320.1c0.7,0,1.2,0.2,1.7,0.6s0.7,1,0.7,1.6c0,0.7-0.2,1.2-0.7,1.6s-1,0.6-1.7,0.6h-2.7v-7.3h4.5v0.9H194v1.9H195.8
			z M195.7,323.8c0.4,0,0.8-0.1,1.1-0.4c0.3-0.3,0.4-0.6,0.4-1c0-0.4-0.1-0.7-0.4-1s-0.6-0.4-1.1-0.4H194v2.7H195.7z"/>
		<path d="M200.6,317.3h4.5v7.3h-0.9v-6.5h-2.8l-0.3,4.2c-0.1,1.6-0.9,2.3-2.2,2.3h-0.3v-0.9h0.3c0.8,0,1.2-0.5,1.3-1.4L200.6,317.3
			z"/>
	</g>
	<g>
		<path d="M70.5,332.9h15.7c1.8,0,3.3,1.5,3.3,3.3v15.7c0,1.8-1.5,3.3-3.3,3.3H70.5c-1.8,0-3.3-1.5-3.3-3.3v-15.7
			C67.2,334.4,68.7,332.9,70.5,332.9z M75,348.4c0,0.4,0.3,0.7,0.7,0.7H81c0.4,0,0.7-0.3,0.7-0.7v-8.8c0-0.4-0.3-0.6-0.7-0.6h-5.4
			c-0.4,0-0.7,0.3-0.7,0.6V348.4z"/>
		<path d="M114.8,342.4h-0.1l-6.3,7.9h-0.1l-6.3-7.9h-0.1v12.9h-7.8V339l-2.2-6.1h9.6l6.9,8.5h0.1l4.4-5.7c1.6-1.8,4.1-2.8,6.4-2.8
			h3.5v22.4h-7.8V342.4z"/>
		<path d="M125.2,332.9h22.1l-1.7,4.6c-0.3,0.6-0.9,1-1.6,1h-8.8v3.1h9.2l-1.4,3.8c-0.3,0.8-1.1,1-1.7,1H137c-0.4,0-0.8-0.4-1-0.6
			l-0.6-0.9h-0.1v4.9h8.6c0.6,0,1.5,0.3,2,1.4l1.5,4.2h-19.9V339L125.2,332.9z"/>
		<path d="M168.3,332.9c3.1,0,4.8,3,4.8,4.8v13.2c0,1.8-1.6,4.4-4.8,4.4h-17.6V339l-2.2-6.2H168.3z M163.8,349.6
			c0.8,0,1.4-0.6,1.4-1.4V340c0-0.8-0.6-1.4-1.4-1.4h-5.3v11H163.8z"/>
		<path d="M185.7,332.9v22.4h-7.8V339l-2.2-6.2H185.7z"/>
		<path d="M188.6,355.3l3.3-16.2l-2.2-6.2h18.8l4.5,22.4h-8l-1.2-5.7l-0.4,1c-0.3,0.9-1.5,1.4-2.4,1.4h-4.2l-0.7,3.3H188.6z
			 M197.8,347.1h5.5l-1.7-8.5h-2.1L197.8,347.1z"/>
		<path d="M222.8,332.9v8.3c0,1.8-0.6,4.9-2.4,4.9h-4.9v-13.2H222.8z M222.8,348v7.3h-7.3V348H222.8z"/>
	</g>
	<g>
		<path d="M71.2,360.5h9.1l3.6,4.2h0.1l2-2.3c1.3-1.5,3.7-1.9,5.7-1.9h3.4v16.2h-7.4v-9.1h-0.1l-3.6,4h-0.2l-3.5-4h-0.1v9.1h-7.4
			v-11.2h0L71.2,360.5z"/>
		<path d="M110.8,370.1l0.9-7c0.2-1.4,2.3-2.5,3.9-2.5h4l-2.5,18.8c-0.2,1.8-2.4,3.6-4.3,3.6h-12.4l0.8-2.5c0.3-0.8,1-2,1.9-2h6.1
			c0.3,0,0.6-0.3,0.7-0.5l0.8-5.5h-0.4l-0.6,1.6c-0.4,0.9-0.8,1.1-1.8,1.1h-4.9c-1.7,0-3.2-1.8-3.4-3.4l-1.1-8.2l-1.2-3.1h8.3l1.2,9
			c0,0.3,0.4,0.5,0.7,0.5H110.8z"/>
		<path d="M124.7,366.9h5.4c0.2,0,0.4-0.2,0.4-0.4l0.3-1.2c0.1-0.2-0.1-0.4-0.3-0.4h-6.2c-1.1,0-1.9-1.1-2.2-2l-1-2.5h15.3
			c1,0,1.6,0.7,1.5,1.5l-0.9,4.4c-0.1,0.4-0.4,0.8-0.7,1.1l-0.3,0.2h1.5c1,0,1.7,0.8,1.5,1.8l-1,5.5c-0.2,1-1.1,1.8-2.1,1.8h-14.9
			l1-2.5c0.4-0.9,1.2-2,2.2-2h6.7c0.2,0,0.4-0.2,0.4-0.4l0.3-1.1c0-0.2-0.1-0.4-0.3-0.4h-4.9c-0.6,0-1.1-0.6-1.3-1.2L124.7,366.9z"
			/>
		<path d="M149.5,360.5v6.7c0.1-0.2,0.3-0.5,0.4-0.7c0.2-0.2,0.4-0.5,0.6-0.7c0.4-0.5,1-0.9,1.4-0.9h8.5c0.9,0,1.5,1,1.4,2.3
			l-0.9,7.1c-0.2,1.3-1,2.3-2,2.3h-16.9v-11.2l-1.7-5H149.5z M149.5,369.4v2.9h4.3c0.2,0,0.4-0.2,0.4-0.4l0.3-2.1
			c0-0.2-0.1-0.4-0.3-0.4H149.5z M171.8,360.5v16.2h-7.4V365l-1.7-4.5H171.8z"/>
		<path d="M188.2,376.8l-1.1-4.6c-0.2-0.8-0.7-1-1.2-1h-0.6c-0.7,0-1.4,0-1.6-0.7l-0.1-0.5h-0.4v6.9h-7.4v-11.2l-1.7-5h9.1v7.9h0.5
			l2.1-5.4c0.7-1.4,2-2.5,3.6-2.5h6.5l-1.7,5h-3.5c-0.5,0-1,0.3-1.2,0.6l-0.6,1h2.1c0.9,0,2,0.6,2.1,1.4l2.6,8.2H188.2z"/>
		<path d="M198.1,360.5H214c1.9,0,3.6,2.3,3.8,4.3v12h-7.4v-2.1h-0.2c-0.1,0.2-0.3,0.4-0.4,0.5c-0.8,0.8-2.1,1.6-3.1,1.6h-6.2
			c-1.1,0-2.4-1.3-2.4-2.4v-5c0-1.1,1.3-2.4,2.4-2.4h9.9v-1.3c0-0.4-0.7-0.7-1.1-0.7h-8.2c-1,0-1.7-1.1-2-2L198.1,360.5z
			 M205.5,372.4c0,0.6,0.5,0.7,0.9,0.7h4.1v-2.8h-4.1c-0.4,0-0.8,0.2-0.8,0.7V372.4z"/>
	</g>
</g>
</svg>
