<svg width="15" height="14" viewBox="0 0 15 14" fill="none" xmlns="http://www.w3.org/2000/svg">
<path d="M1 12.5L2 13.5H14V0.5H1V12.5Z" fill="#8AB2DE" stroke="#567597"/>
<rect x="3.5" y="13" width="8" height="1" fill="#7F919C"/>
<path d="M1.5 12.5L2 13H2.5V12H1.5V12.5Z" fill="#648CB7"/>
<rect x="3.5" y="9" width="8" height="4" fill="#BDC8C6"/>
<rect x="4.5" y="11" width="2" height="2" fill="#5E86B3"/>
<rect x="4.5" y="10" width="2" height="1" fill="#436B97"/>
<rect x="2.5" y="8" width="1" height="5" fill="#6586AB"/>
<rect x="11.5" y="8" width="1" height="5" fill="#6586AB"/>
<rect x="11.5" y="8" width="1" height="8" transform="rotate(90 11.5 8)" fill="#6586AB"/>
<rect x="3.5" y="1" width="8" height="5" fill="white"/>
<rect x="4.5" y="4" width="6" height="1" fill="#9EB5CC"/>
<rect x="4.5" y="2" width="6" height="1" fill="#9EB5CC"/>
<rect x="2.5" width="10" height="1" fill="#7F919C"/>
<rect x="12.5" width="1" height="1" fill="#3F6690"/>
<rect x="1.5" width="1" height="1" fill="#3F6690"/>
</svg>
